<svg width="24" height="22" viewBox="0 0 24 22" fill="none" xmlns="http://www.w3.org/2000/svg">
<g filter="url(#filter0_d)">
<path d="M20.023 12.4919C19.393 12.4769 18.6 12.4399 18.099 12.3519C17.557 12.2559 16.905 12.0699 16.446 11.9269C16.086 11.8149 15.694 11.9139 15.427 12.1799L13.21 14.3839C11.678 13.5769 10.451 12.6369 9.412 11.5919C8.367 10.5529 7.427 9.32591 6.62 7.79391L8.824 5.57591C9.09 5.30891 9.189 4.91691 9.077 4.55691C8.935 4.09891 8.748 3.44691 8.653 2.90491C8.564 2.40391 8.528 1.61091 8.512 0.980906C8.499 0.435906 8.055 0.00390625 7.51 0.00390625H4C3.562 0.00390625 3 0.331906 3 1.00391C3 5.54291 4.84 9.87791 7.966 13.0379C11.126 16.1639 15.461 18.0039 20 18.0039C20.672 18.0039 21 17.4419 21 17.0039V13.4939C21 12.9489 20.568 12.5049 20.023 12.4919Z" fill="#0F0A0A"/>
</g>
<defs>
<filter id="filter0_d" x="-1" y="0.00390625" width="26" height="26" filterUnits="userSpaceOnUse" color-interpolation-filters="sRGB">
<feFlood flood-opacity="0" result="BackgroundImageFix"/>
<feColorMatrix in="SourceAlpha" type="matrix" values="0 0 0 0 0 0 0 0 0 0 0 0 0 0 0 0 0 0 127 0"/>
<feOffset dy="4"/>
<feGaussianBlur stdDeviation="2"/>
<feColorMatrix type="matrix" values="0 0 0 0 0 0 0 0 0 0 0 0 0 0 0 0 0 0 0.25 0"/>
<feBlend mode="normal" in2="BackgroundImageFix" result="effect1_dropShadow"/>
<feBlend mode="normal" in="SourceGraphic" in2="effect1_dropShadow" result="shape"/>
</filter>
</defs>
</svg>
